<?xml version="1.0" standalone="no"?>
<!DOCTYPE svg PUBLIC "-//W3C//DTD SVG 20010904//EN"
 "http://www.w3.org/TR/2001/REC-SVG-20010904/DTD/svg10.dtd">
<svg version="1.0" xmlns="http://www.w3.org/2000/svg"
 width="1080.000000pt" height="1080.000000pt" viewBox="0 0 1080.000000 1080.000000"
 preserveAspectRatio="xMidYMid meet">
<metadata>
Created by potrace 1.14, written by Peter Selinger 2001-2017
</metadata>
<g transform="translate(0.000000,1080.000000) scale(0.100000,-0.100000)"
fill="#000000" stroke="none">
<path d="M0 5400 l0 -5400 5400 0 5400 0 0 5400 0 5400 -5400 0 -5400 0 0
-5400z m1326 2332 c7 -4 51 -113 99 -242 47 -129 95 -257 106 -285 10 -27 69
-185 129 -350 140 -379 151 -408 160 -398 7 8 25 56 225 603 202 551 245 664
258 672 16 10 329 10 345 0 10 -7 12 -259 10 -1228 l-3 -1219 -185 0 -185 0
-5 730 c-3 402 -9 724 -13 718 -4 -7 -16 -36 -27 -65 -67 -190 -153 -437 -160
-458 -4 -14 -31 -90 -60 -170 -28 -80 -63 -179 -77 -220 -14 -41 -30 -81 -36
-88 -7 -9 -36 -12 -100 -10 l-90 3 -74 215 c-41 118 -109 312 -150 430 -41
118 -87 250 -101 293 -15 42 -30 77 -34 77 -4 0 -9 -327 -10 -727 l-3 -728
-176 -3 c-141 -2 -178 0 -188 11 -8 11 -11 319 -9 1221 3 1060 5 1208 18 1216
18 11 320 13 336 2z m2487 -4 c16 -13 28 -60 142 -543 46 -194 68 -291 155
-655 23 -96 55 -229 70 -295 16 -66 49 -205 74 -310 25 -104 57 -239 71 -300
14 -60 37 -156 52 -213 14 -56 22 -109 19 -117 -4 -13 -34 -15 -180 -15 -158
0 -176 2 -185 18 -5 10 -21 74 -34 142 -61 303 -71 346 -80 358 -7 9 -66 12
-256 10 l-246 -3 -33 -155 c-60 -283 -74 -345 -78 -358 -3 -10 -45 -12 -186
-10 l-183 3 3 30 c2 17 24 113 48 215 25 102 58 239 73 305 16 66 47 197 70
290 22 94 72 305 112 470 39 165 82 345 94 400 28 122 109 463 135 565 10 41
21 94 25 117 4 24 14 47 23 53 26 15 275 13 295 -2z m1237 -513 l5 -520 228
-3 227 -2 0 513 c0 386 3 516 12 525 17 17 328 17 351 0 16 -12 17 -95 15
-1228 l-3 -1215 -185 0 -185 0 -3 543 -2 542 -228 -2 -227 -3 -5 -540 -5 -540
-180 0 -180 0 -3 1215 c-1 668 0 1221 3 1228 3 10 46 12 182 10 l178 -3 5
-520z m1629 519 l31 -7 -2 -1221 -3 -1221 -180 0 -180 0 -3 1214 c-1 889 1
1217 9 1227 9 11 46 14 154 14 78 0 157 -3 174 -6z m1564 -1 l27 -5 0 -159 0
-159 -362 -2 -363 -3 -3 -357 -2 -358 319 0 319 0 6 -22 c9 -34 7 -281 -2
-295 -6 -10 -86 -13 -323 -15 l-314 -3 -3 -357 -2 -358 365 0 365 0 0 -180 0
-180 -544 0 c-460 0 -545 2 -555 14 -10 11 -12 297 -9 1218 2 662 7 1209 12
1216 6 10 114 13 524 11 285 -1 529 -3 545 -6z m736 -6 c8 -10 11 -293 13
-988 3 -951 3 -975 23 -1014 28 -56 99 -98 175 -103 100 -7 181 33 223 111
l22 42 3 975 c2 758 5 976 15 982 6 4 85 8 174 8 135 0 164 -3 178 -16 14 -15
16 -106 13 -1003 l-3 -986 -23 -65 c-34 -93 -67 -146 -140 -222 -51 -53 -85
-77 -156 -112 -113 -56 -154 -66 -286 -66 -130 0 -173 10 -280 63 -150 73
-257 201 -307 367 -15 49 -17 155 -20 1031 -4 888 -2 978 12 993 14 13 43 16
184 16 128 0 171 -3 180 -13z m886 -2742 l0 -30 -4472 -3 -4473 -2 0 28 c0 16
3 32 7 35 3 4 2016 6 4472 5 l4466 -3 0 -30z m-8482 -178 c50 -38 69 -77 65
-135 l-3 -47 -50 0 c-48 0 -50 1 -60 36 -14 51 -32 69 -70 69 -61 0 -95 -77
-62 -139 8 -16 39 -34 96 -57 47 -19 95 -44 108 -56 34 -32 46 -83 42 -180 -4
-74 -7 -89 -32 -121 -40 -53 -80 -71 -157 -71 -111 0 -184 62 -185 159 l0 50
49 3 c52 3 66 -6 66 -44 0 -48 91 -77 128 -40 20 20 23 136 4 159 -7 8 -48 29
-90 46 -115 47 -138 71 -152 156 -12 71 3 145 36 184 39 47 80 62 160 59 60
-3 77 -8 107 -31z m1447 -16 c0 -55 -7 -61 -75 -61 l-43 0 -8 -77 c-4 -43 -4
-175 0 -293 4 -119 4 -223 0 -233 -5 -13 -18 -17 -60 -17 l-54 0 -2 308 -3
307 -40 3 c-80 5 -85 8 -85 56 0 23 3 46 7 49 3 4 87 7 185 7 l178 0 0 -49z
m1148 -247 c2 -274 3 -292 22 -309 24 -22 67 -23 88 -1 15 15 17 51 20 299 1
155 4 288 7 295 3 7 24 12 55 12 l50 0 0 -307 c0 -294 -1 -310 -21 -342 -28
-47 -56 -68 -107 -81 -84 -21 -175 17 -212 90 -19 37 -20 58 -20 333 0 161 3
297 7 301 4 4 30 6 58 4 l50 -3 3 -291z m1574 284 c54 -16 105 -75 113 -130 4
-24 5 -140 3 -258 -3 -204 -4 -217 -26 -252 -37 -60 -88 -78 -220 -78 l-112 0
0 365 0 365 101 0 c56 0 119 -5 141 -12z m1322 -4 c8 -20 8 -678 0 -698 -5
-12 -20 -16 -60 -16 l-54 0 0 365 0 365 54 0 c40 0 55 -4 60 -16z m1371 -7
c22 -13 49 -40 62 -62 22 -38 23 -50 23 -280 0 -273 -3 -287 -77 -339 -37 -26
-52 -30 -106 -29 -37 0 -76 7 -94 16 -41 22 -80 70 -93 115 -13 48 -13 426 0
474 13 47 55 97 95 114 49 22 144 17 190 -9z m1440 0 c53 -30 86 -88 83 -147
l-3 -45 -43 -3 c-49 -4 -72 10 -72 42 0 37 -28 66 -64 66 -48 0 -67 -19 -73
-73 -8 -68 9 -88 111 -126 115 -43 138 -72 144 -179 8 -140 -35 -221 -128
-241 -135 -29 -255 48 -248 159 l3 45 49 0 c48 0 49 -1 63 -40 16 -48 26 -55
80 -55 32 0 45 5 53 19 13 25 13 126 0 151 -5 10 -35 28 -65 39 -135 51 -172
88 -182 183 -9 93 23 168 91 209 46 28 148 26 201 -4z m180 -816 c3 -10 3 -26
-1 -35 -6 -15 -341 -16 -4475 -16 l-4469 0 0 35 0 35 4469 0 c4348 0 4470 -1
4476 -19z"/>
<path d="M3656 6988 c-2 -7 -9 -38 -15 -68 -14 -69 -58 -286 -111 -540 -22
-107 -40 -205 -40 -217 l0 -23 174 0 c96 0 177 3 179 8 3 4 -1 36 -8 72 -27
133 -76 369 -100 480 -13 63 -32 157 -42 208 -17 85 -28 110 -37 80z"/>
<path d="M5427 4723 c-4 -3 -7 -115 -7 -248 0 -269 1 -271 62 -260 65 12 63 3
66 249 3 216 2 226 -17 245 -21 21 -89 30 -104 14z"/>
<path d="M8094 4716 c-18 -13 -19 -30 -22 -228 -3 -249 0 -261 65 -266 72 -5
73 -2 73 252 0 203 -2 224 -18 239 -23 21 -71 22 -98 3z"/>
</g>
</svg>
